<?xml version="1.0" encoding="UTF-8" standalone="no"?>
<!-- Created with Inkscape (http://www.inkscape.org/) -->

<svg
   width="1000"
   height="590.55511"
   viewBox="0 0 264.583 156.25102"
   version="1.1"
   id="svg1"
   inkscape:version="1.4.4 (1:1.4.4+202605061436+dcaf3e7d9e)"
   sodipodi:docname="golden.svg"
   xmlns:inkscape="http://www.inkscape.org/namespaces/inkscape"
   xmlns:sodipodi="http://sodipodi.sourceforge.net/DTD/sodipodi-0.dtd"
   xmlns="http://www.w3.org/2000/svg"
   xmlns:svg="http://www.w3.org/2000/svg">
  <sodipodi:namedview
     id="namedview1"
     pagecolor="#ffffff"
     bordercolor="#000000"
     borderopacity="0.25"
     inkscape:showpageshadow="2"
     inkscape:pageopacity="0.0"
     inkscape:pagecheckerboard="0"
     inkscape:deskcolor="#d1d1d1"
     inkscape:document-units="mm"
     inkscape:zoom="0.63118804"
     inkscape:cx="562.43144"
     inkscape:cy="159.22355"
     inkscape:window-width="1366"
     inkscape:window-height="703"
     inkscape:window-x="0"
     inkscape:window-y="0"
     inkscape:window-maximized="1"
     inkscape:current-layer="g1" />
  <defs
     id="defs1">
    <clipPath
       clipPathUnits="userSpaceOnUse"
       id="clipPath251">
      <path
         d="M 0.52347501,0.97870706 H 0.26817586 L 0.29241791,0.01401447 H 0.62574619 L 0.52347501,0.97870706"
         id="path251" />
    </clipPath>
    <clipPath
       clipPathUnits="userSpaceOnUse"
       id="clipPath252">
      <path
         d="M 0.45177988,0.97899198 H 0.38124542 V 0.79049956 c 0.0249996,1.7841e-4 0.050892,3.5683e-4 0.0758915,5.3524e-4 l -0.005357,0.18795718 m 0.009821,-0.3543711 C 0.4348159,0.62444247 0.4089235,0.62430866 0.38124542,0.62413025 V 0.01735058 h 0.0991054 l -0.0187497,0.6072703"
         id="path252" />
    </clipPath>
    <clipPath
       clipPathUnits="userSpaceOnUse"
       id="clipPath253">
      <path
         d="m 0.62437806,0.91666667 c -0.0341455,-8.658e-4 -0.0695105,-0.001732 -0.103656,-0.002597 v -0.8073593 c 0.037804,8.658e-4 0.0731689,0.001515 0.10975342,0.002381 l -0.006097,0.80757576"
         id="path253" />
    </clipPath>
    <clipPath
       clipPathUnits="userSpaceOnUse"
       id="clipPath251-5">
      <path
         d="M 0.52347501,0.97870706 H 0.26817586 L 0.29241791,0.01401447 H 0.62574619 L 0.52347501,0.97870706"
         id="path251-6" />
    </clipPath>
    <clipPath
       clipPathUnits="userSpaceOnUse"
       id="clipPath252-2">
      <path
         d="M 0.45177988,0.97899198 H 0.38124542 V 0.79049956 c 0.0249996,1.7841e-4 0.050892,3.5683e-4 0.0758915,5.3524e-4 l -0.005357,0.18795718 m 0.009821,-0.3543711 C 0.4348159,0.62444247 0.4089235,0.62430866 0.38124542,0.62413025 V 0.01735058 h 0.0991054 l -0.0187497,0.6072703"
         id="path252-9" />
    </clipPath>
    <clipPath
       clipPathUnits="userSpaceOnUse"
       id="clipPath253-1">
      <path
         d="m 0.62437806,0.91666667 c -0.0341455,-8.658e-4 -0.0695105,-0.001732 -0.103656,-0.002597 v -0.8073593 c 0.037804,8.658e-4 0.0731689,0.001515 0.10975342,0.002381 l -0.006097,0.80757576"
         id="path253-2" />
    </clipPath>
    <clipPath
       clipPathUnits="userSpaceOnUse"
       id="clipPath251-1">
      <path
         d="M 0.52347501,0.97870706 H 0.26817586 L 0.29241791,0.01401447 H 0.62574619 L 0.52347501,0.97870706"
         id="path251-5" />
    </clipPath>
    <clipPath
       clipPathUnits="userSpaceOnUse"
       id="clipPath252-5">
      <path
         d="M 0.45177988,0.97899198 H 0.38124542 V 0.79049956 c 0.0249996,1.7841e-4 0.050892,3.5683e-4 0.0758915,5.3524e-4 l -0.005357,0.18795718 m 0.009821,-0.3543711 C 0.4348159,0.62444247 0.4089235,0.62430866 0.38124542,0.62413025 V 0.01735058 h 0.0991054 l -0.0187497,0.6072703"
         id="path252-4" />
    </clipPath>
    <clipPath
       clipPathUnits="userSpaceOnUse"
       id="clipPath253-7">
      <path
         d="m 0.62437806,0.91666667 c -0.0341455,-8.658e-4 -0.0695105,-0.001732 -0.103656,-0.002597 v -0.8073593 c 0.037804,8.658e-4 0.0731689,0.001515 0.10975342,0.002381 l -0.006097,0.80757576"
         id="path253-6" />
    </clipPath>
  </defs>
  <g
     inkscape:label="Capa 1"
     inkscape:groupmode="layer"
     id="layer1"
     style="display:inline"
     transform="translate(-30.327603,-38.62284)">
    <g
       id="g1"
       transform="matrix(1.5225148,0,0,0.87691935,0.48362325,9.7762742)">
      <path
         id="path213"
         d="m 151.25785,74.065264 h -15.59348 c -1.94839,0 -3.52778,-1.716616 -3.52778,-3.834342 0,-2.117372 1.57939,-3.834342 3.52778,-3.834342 h 15.59348 c 1.9484,0 3.52778,1.71697 3.52778,3.834342 0,2.117726 -1.57938,3.834342 -3.52778,3.834342"
         style="display:inline;fill:#f19a17;fill-opacity:1;fill-rule:nonzero;stroke:none;stroke-width:0.0352778" />
      <path
         id="path214"
         d="m 144.71488,130.33368 c -0.50694,0 -1.02199,-0.11959 -1.51024,-0.37148 -5.65785,-2.91923 -9.50348,-10.66729 -5.90726,-19.82752 4.39843,-11.20352 14.15521,-16.440153 22.76369,-21.060131 6.29991,-3.381376 12.25021,-6.575073 15.87077,-11.617326 2.07716,-2.892778 6.12775,-10.453159 -1.10031,-18.159237 -2.31035,-2.463095 -8.90235,-3.73239 -14.38946,-0.203906 -4.50462,2.896306 -5.21899,8.079317 -4.46193,11.637787 0.52317,2.460978 2.07116,5.416197 4.71064,5.645856 1.94239,0.168628 3.3909,2.01683 3.23533,4.127853 -0.15523,2.110669 -1.85315,3.685822 -3.79766,3.516136 -5.30013,-0.460728 -9.6266,-4.999214 -11.02254,-11.562645 -1.70356,-8.008409 1.33597,-15.845015 7.74347,-19.965107 8.35166,-5.369984 18.40125,-3.491089 22.9228,1.329267 9.23043,9.841442 6.69643,21.423843 1.72191,28.352046 -4.61293,6.424084 -11.5757,10.161059 -18.30917,13.775268 -8.24089,4.422779 -16.02423,8.600369 -19.39819,17.193679 -1.94593,4.95724 -0.17498,8.53934 2.44369,9.89048 1.76001,0.90805 2.50931,3.19511 1.67393,5.10823 -0.6036,1.38183 -1.86972,2.1904 -3.18947,2.19075"
         style="display:inline;fill:#f8c80f;fill-opacity:1;fill-rule:nonzero;stroke:none;stroke-width:0.0352778" />
      <path
         id="path215"
         d="M 79.681003,74.065264 H 64.087519 c -1.948392,0 -3.527778,-1.716616 -3.527778,-3.834342 0,-2.117372 1.579386,-3.834342 3.527778,-3.834342 h 15.593484 c 1.948387,0 3.527777,1.71697 3.527777,3.834342 0,2.117726 -1.57939,3.834342 -3.527777,3.834342"
         style="display:inline;fill:#f19a17;fill-opacity:1;fill-rule:nonzero;stroke:none;stroke-width:0.0352778" />
      <path
         id="path216"
         d="m 112.82554,191.42915 -10.53995,-0.018 0.11183,-64.60561 10.53959,0.0183 -0.11147,64.60526"
         style="fill:#f8c80f;fill-opacity:1;fill-rule:nonzero;stroke:none;stroke-width:0.0352778" />
      <path
         id="path217"
         d="m 106.1471,191.42915 -2.4504,-0.018 0.11184,-64.60561 2.45004,0.0183 -0.11148,64.60526"
         style="fill:#ffffb3;fill-opacity:1;fill-rule:nonzero;stroke:none;stroke-width:0.0352778" />
      <path
         id="path218"
         d="m 102.37379,147.19752 c 0,0 1.2707,-1.34585 5.37139,-1.34585 4.10069,0 5.14033,1.34585 5.14033,1.34585 v -4.17231 l -10.51172,0.09 v 4.08235"
         style="fill:#f19a17;fill-opacity:1;fill-rule:nonzero;stroke:none;stroke-width:0.0352778" />
      <path
         id="path219"
         d="m 118.46927,134.18672 c 0,5.99652 -4.86127,10.85779 -10.85814,10.85779 -5.99687,0 -10.85815,-4.86127 -10.85815,-10.85779 0,-5.99652 4.86128,-10.85815 10.85815,-10.85815 5.99687,0 10.85814,4.86163 10.85814,10.85815"
         style="fill:#f1d014;fill-opacity:1;fill-rule:nonzero;stroke:none;stroke-width:0.0352778" />
      <path
         id="path220"
         d="m 107.61113,123.32857 c -5.99687,0 -10.85815,4.86163 -10.85815,10.85815 0,0.33196 0.0173,0.66005 0.0466,0.9846 3.3281,-0.5521 7.30638,-1.05622 10.75866,-1.05622 3.47274,0 7.4997,0.51012 10.86379,1.06645 0.0296,-0.32808 0.0473,-0.65934 0.0473,-0.99483 0,-5.99652 -4.86127,-10.85815 -10.85814,-10.85815"
         style="fill:#f19a17;fill-opacity:1;fill-rule:nonzero;stroke:none;stroke-width:0.0352778" />
      <path
         id="path221"
         d="m 135.03008,200.42781 c -1.50813,-4.95794 -3.4283,-12.43577 -4.69089,-14.87241 -6.61317,-12.75856 -15.4619,-17.16052 -22.08248,-17.14888 l -0.68298,0.001 -0.68262,0.001 c -6.62341,0.0117 -15.47989,4.44042 -22.06943,17.23355 -1.24954,2.4257 0.38347,9.87002 -1.10137,14.78563 h 51.30977"
         style="fill:#f8c80f;fill-opacity:1;fill-rule:nonzero;stroke:none;stroke-width:0.0352778" />
      <path
         id="path222"
         d="m 97.34953,200.42781 c 0.99695,-4.91561 -0.18486,-12.35993 0.66957,-14.78563 3.17394,-9.01135 7.17479,-13.8684 10.88743,-15.95896 -0.84914,-0.47378 -0.72637,-0.8061 -1.52824,-1.01212 -4.32364,1.11055 -13.32865,5.91608 -17.22261,16.97108 -0.85443,2.4257 0.0205,9.87002 -0.97649,14.78563 h 8.17034"
         style="fill:#ffffb3;fill-opacity:1;fill-rule:nonzero;stroke:none;stroke-width:0.0352778" />
      <path
         id="path223"
         d="m 142.24826,58.508116 -34.26989,-0.05927 -34.270248,-0.05962 c 0,0 -0.936978,34.514016 2.518128,47.201314 5.18654,19.0433 17.09526,27.3036 30.25669,27.32653 l 1.35643,0.002 1.35679,0.003 c 13.16037,0.0229 25.09802,-8.1968 30.35088,-27.2207 3.49921,-12.674246 2.70122,-47.192848 2.70122,-47.192848"
         style="fill:#f8c80f;fill-opacity:1;fill-rule:nonzero;stroke:none;stroke-width:0.0352778" />
      <path
         id="path224"
         d="m 107.97837,58.448849 -0.77294,-0.0014 v 74.470691 l 0.63394,7e-4 1.35679,0.003 c 13.16037,0.0229 25.09802,-8.1968 30.35088,-27.22069 3.49921,-12.674251 2.70122,-47.192853 2.70122,-47.192853 l -34.26989,-0.05927"
         style="fill:#f1d014;fill-opacity:1;fill-rule:nonzero;stroke:none;stroke-width:0.0352778" />
      <path
         id="path225"
         d="m 106.31537,129.09896 c -9.138,-0.0173 -13.20094,-12.73352 -14.8089,-19.86775 -1.42769,-6.33589 -1.93217,-21.374098 -1.97662,-34.232848 l 36.14315,0.06632 c -0.0917,12.859103 -0.65088,27.894138 -2.09974,34.225088 -1.62983,7.12082 -5.72805,19.81307 -14.85617,19.81307 l -2.40172,-0.004"
         style="fill:#f8c80f;fill-opacity:1;fill-rule:nonzero;stroke:none;stroke-width:0.0352778" />
      <path
         id="path226"
         d="m 138.14828,66.181033 -29.47388,-0.05115 -29.474233,-0.0515 c 0,0 -0.0099,0.381 -0.02399,1.067506 l 24.206203,0.04233 26.65166,0.05115 c 0,0 0.6865,29.687663 -2.32305,40.587791 -3.47027,12.56841 -7.51205,19.64831 -15.63828,22.24899 10.37167,-0.91158 19.55024,-8.08673 23.75288,-23.30732 3.00955,-10.900485 2.32269,-40.587795 2.32269,-40.587795"
         style="fill:#f19a17;fill-opacity:1;fill-rule:nonzero;stroke:none;stroke-width:0.0352778" />
      <path
         id="path227"
         d="M 89.37992,106.2827 C 86.33051,95.468646 87.13978,66.1387 87.14719,65.875528 l -7.30532,-0.0063 c 0,0 -0.830439,29.550785 2.23238,40.413872 4.5974,16.30433 15.15463,23.37682 26.82169,23.39658 l 1.20262,0.001 1.20227,0.002 c 0.26141,3.5e-4 0.52176,-0.007 0.78211,-0.0138 -11.48151,-0.20532 -18.167,-7.29968 -22.70302,-23.38705"
         style="fill:#ffffb3;fill-opacity:1;fill-rule:nonzero;stroke:none;stroke-width:0.0352778" />
      <path
         id="path228"
         d="m 107.97837,58.448849 -34.270248,-0.05962 c 0,0 -0.481542,9.850262 0.07655,23.002171 5.053189,-0.8763 15.655928,-1.839384 33.420758,-1.839384 18.87009,0 30.00234,1.112662 34.8668,1.980495 0.61207,-13.162493 0.17603,-23.024396 0.17603,-23.024396 l -34.26989,-0.05927"
         style="fill:#f19a17;fill-opacity:1;fill-rule:nonzero;stroke:none;stroke-width:0.0352778" />
      <path
         id="path229"
         d="M 144.95266,77.571523 H 70.163763 V 41.805146 h 74.788897 v 35.766377"
         style="fill:#f1d014;fill-opacity:1;fill-rule:nonzero;stroke:none;stroke-width:0.0352778" />
      <path
         id="path230"
         d="M 83.20137,77.571523 H 74.749522 V 41.805146 h 8.451848 v 35.766377"
         style="fill:#ffffb3;fill-opacity:1;fill-rule:nonzero;stroke:none;stroke-width:0.0352778" />
      <path
         id="path231"
         d="M 90.96213,77.571523 H 86.03841 V 41.805146 h 4.92372 v 35.766377"
         style="fill:#ffffb3;fill-opacity:1;fill-rule:nonzero;stroke:none;stroke-width:0.0352778" />
      <path
         id="path232"
         d="m 141.40971,77.571523 h -8.45185 V 41.805146 h 8.45185 v 35.766377"
         style="fill:#f19a17;fill-opacity:1;fill-rule:nonzero;stroke:none;stroke-width:0.0352778" />
      <path
         id="path233"
         d="m 70.163763,53.215744 c 0,0 1.775531,-2.126545 35.753677,-2.126545 33.97885,0 39.03522,2.143125 39.03522,2.143125 V 43.110071 H 70.163763 v 10.105673"
         style="fill:#f19a17;fill-opacity:1;fill-rule:nonzero;stroke:none;stroke-width:0.0352778" />
      <path
         id="path234"
         d="M 149.37155,49.437141 H 65.744869 V 39.11204 h 83.626681 v 10.325101"
         style="fill:#f8c80f;fill-opacity:1;fill-rule:nonzero;stroke:none;stroke-width:0.0352778" />
      <path
         id="path235"
         d="M 71.372027,205.4429 H 143.74439 V 186.48066 H 71.372027 Z"
         style="fill:#f1d014;fill-opacity:1;fill-rule:nonzero;stroke:none;stroke-width:0.0352778" />
      <path
         id="path236"
         d="M 75.930975,205.4429 H 95.78534 V 186.48066 H 75.930975 Z"
         style="fill:#f8990f;fill-opacity:1;fill-rule:nonzero;stroke:none;stroke-width:0.0352778" />
      <path
         id="path237"
         d="m 111.96158,205.4429 h 27.77314 v -18.96224 h -27.77314 z"
         style="fill:#f1d014;fill-opacity:1;fill-rule:nonzero;stroke:none;stroke-width:0.0352778" />
      <path
         id="path238"
         d="M 119.51173,172.28143 H 95.60469 v -8.73125 h 23.90704 v 8.73125"
         style="fill:#f1d014;fill-opacity:1;fill-rule:nonzero;stroke:none;stroke-width:0.0352778" />
      <path
         id="path239"
         d="M 81.23146,49.506285 H 72.779611 V 39.11204 h 8.451849 v 10.394245"
         style="fill:#ffffb3;fill-opacity:1;fill-rule:nonzero;stroke:none;stroke-width:0.0352778" />
      <path
         id="path240"
         d="M 144.02556,49.506285 H 138.0435 V 39.11204 h 5.98206 v 10.394245"
         style="fill:#f19a17;fill-opacity:1;fill-rule:nonzero;stroke:none;stroke-width:0.0352778" />
      <path
         id="path241"
         d="M 78.380311,110.13468 C 73.981878,98.93116 64.225102,93.694527 55.616971,89.074549 49.316712,85.693173 43.366409,82.499476 39.74585,77.457223 37.669048,74.564445 33.6181,67.004064 40.846164,59.297986 c 2.310342,-2.463095 8.902348,-3.73239 14.389454,-0.203906 4.50462,2.896306 5.218642,8.079317 4.461934,11.637787 -0.270934,1.27388 -0.818798,2.677231 -1.648178,3.769431 -0.849136,-0.594431 -1.881011,-0.94615 -2.996495,-0.94615 -2.889956,0 -5.232753,2.342797 -5.232753,5.232753 0,2.865614 2.304345,5.190067 5.160434,5.229225 0.186972,0.01623 0.376061,0.02152 0.568678,0.0046 5.300133,-0.460728 9.6266,-4.999214 11.022542,-11.562645 1.703564,-8.008409 -1.33597,-15.845368 -7.743473,-19.965107 -8.351661,-5.369984 -18.401243,-3.491089 -22.922796,1.329267 -9.230784,9.841442 -6.696428,21.42349 -1.721555,28.352046 4.612569,6.424084 11.575345,10.161059 18.308815,13.775268 8.240536,4.422775 16.024226,8.600365 19.39784,17.193685 1.946275,4.95688 0.174978,8.53934 -2.442986,9.89012 -1.760362,0.90841 -2.510015,3.19547 -1.674284,5.10823 0.603603,1.38218 1.86937,2.1911 3.189464,2.1911 0.506942,0 1.021997,-0.11959 1.510595,-0.37148 5.657497,-2.91923 9.50313,-10.66729 5.906911,-19.82752"
         style="fill:#f8c80f;fill-opacity:1;fill-rule:nonzero;stroke:none;stroke-width:0.0352778" />
      <path
         id="path242"
         d="M 149.37155,40.264212 H 65.744869 V 39.11204 h 83.626681 v 1.152172"
         style="fill:#f8ce2d;fill-opacity:1;fill-rule:nonzero;stroke:none;stroke-width:0.0352778" />
      <path
         id="path243"
         d="m 35.947845,83.586384 c -4.97452,-6.928203 -7.940676,-18.769895 1.290108,-28.610985 4.5212,-4.820356 15.002934,-6.440311 23.354596,-1.070328 0.187678,0.121003 0.372181,0.245534 0.554567,0.372886 -0.714728,-0.651933 -1.488017,-1.249891 -2.318809,-1.783997 -8.351661,-5.369984 -18.401243,-3.491089 -22.922796,1.329267 -9.230784,9.841442 -6.696428,21.42349 -1.721555,28.352046 1.911703,2.662414 4.230511,4.859162 6.766278,6.781095 -1.84785,-1.575858 -3.5433,-3.337631 -5.002389,-5.369984"
         style="fill:#f19a17;fill-opacity:1;fill-rule:nonzero;stroke:none;stroke-width:0.0352778" />
      <path
         id="path244"
         d="m 69.537583,129.55404 c -0.835731,-1.91311 -0.08608,-4.20018 1.673931,-5.10823 2.618316,-1.35113 4.389261,-4.93324 2.443339,-9.89047 -1.800578,-4.58576 -4.857045,-7.91352 -8.568268,-10.6927 2.911828,2.49096 5.298017,5.44548 6.804026,9.28158 1.946275,4.95689 0.174978,8.53934 -2.442986,9.89013 -1.760362,0.9084 -2.510015,3.19546 -1.674284,5.10823 0.430389,0.98566 1.199797,1.67216 2.0828,1.98966 -0.118533,-0.18097 -0.228247,-0.37077 -0.318558,-0.5782"
         style="fill:#f19a17;fill-opacity:1;fill-rule:nonzero;stroke:none;stroke-width:0.0352778" />
      <path
         id="path245"
         d="m 149.25443,73.103239 c -1.20474,-7.611886 1.83938,-14.917915 7.94773,-18.84539 8.35166,-5.369631 18.40124,-3.491089 22.9228,1.32962 3.01766,3.217333 4.77167,6.620581 5.60034,9.986786 -0.60183,-3.932061 -2.40665,-7.969956 -5.95312,-11.751028 -4.52155,-4.820356 -14.57114,-6.699251 -22.9228,-1.329267 -6.4075,4.119739 -9.44703,11.956698 -7.74347,19.965107 0.0459,0.216958 0.096,0.431447 0.14852,0.644172"
         style="fill:#f8ce2d;fill-opacity:1;fill-rule:nonzero;stroke:none;stroke-width:0.0352778" />
      <path
         id="path246"
         d="m 146.23042,123.03435 c -1.27529,-0.65793 -2.34809,-1.84644 -2.88996,-3.46393 0.19791,2.52836 1.54058,4.35011 3.24274,5.22817 0.75423,0.38912 1.3215,1.03258 1.65911,1.7907 0.031,-1.46614 -0.71437,-2.88537 -2.01189,-3.55494"
         style="fill:#f19a17;fill-opacity:1;fill-rule:nonzero;stroke:none;stroke-width:0.0352778" />
      <path
         id="path247"
         d="m 160.69078,76.377723 c -2.38972,-0.207786 -3.88161,-2.649362 -4.53143,-4.936067 0.0434,0.363714 0.1016,0.716492 0.17357,1.0541 0.52317,2.460978 2.07115,5.416197 4.71064,5.645856 1.29046,0.112183 2.35973,0.967669 2.88854,2.146653 0.0441,-2.018595 -1.36631,-3.747912 -3.24132,-3.910542"
         style="fill:#f8ce2d;fill-opacity:1;fill-rule:nonzero;stroke:none;stroke-width:0.0352778" />
      <path
         id="path248"
         d="m 137.65016,111.89857 c 4.39843,-11.20352 14.15521,-16.440154 22.76369,-21.060132 6.29991,-3.381376 12.25021,-6.57472 15.87077,-11.617326 1.50671,-2.098323 4.04812,-6.653389 2.57351,-11.937648 0.55774,4.519789 -1.59032,8.312856 -2.92629,10.173759 -3.62056,5.042253 -9.57086,8.23595 -15.87077,11.617326 -8.60848,4.619978 -18.36526,9.856611 -22.76369,21.060131 -1.59526,4.06364 -1.72403,7.84789 -0.88159,11.05746 -0.39547,-2.79999 -0.0776,-5.95206 1.23437,-9.29357"
         style="fill:#f19a17;fill-opacity:1;fill-rule:nonzero;stroke:none;stroke-width:0.0352778" />
      <path
         id="path250"
         d="M 143.74439,187.85516 H 71.372027 v -1.37442 h 72.372363 v 1.37442"
         style="fill:#f8ce2d;fill-opacity:1;fill-rule:nonzero;stroke:none;stroke-width:0.0352778" />
    </g>
  </g>
  <g
     inkscape:groupmode="layer"
     id="layer2"
     inkscape:label="Capa 2"
     transform="translate(-30.327603,-38.62284)"
     style="display:none">
    <g
       id="g2"
       transform="matrix(1.5225148,0,0,0.87691935,-0.15459557,10.143863)"
       style="display:inline">
      <path
         id="path213-0"
         d="m 151.87218,73.576064 h -15.59349 c -1.94839,0 -3.52777,-1.716616 -3.52777,-3.834342 0,-2.117372 1.57938,-3.834342 3.52777,-3.834342 h 15.59349 c 1.94839,0 3.52778,1.71697 3.52778,3.834342 0,2.117726 -1.57939,3.834342 -3.52778,3.834342"
         style="display:inline;fill:#917c6f;fill-opacity:1;fill-rule:nonzero;stroke:none;stroke-width:0.0352778" />
      <path
         id="path214-9"
         d="m 145.32921,129.84448 c -0.50694,0 -1.022,-0.11959 -1.51024,-0.37148 -5.65785,-2.91923 -9.50348,-10.66729 -5.90727,-19.82752 4.39844,-11.20352 14.15521,-16.440153 22.7637,-21.060131 6.2999,-3.381376 12.25021,-6.575073 15.87076,-11.617326 2.07716,-2.892778 6.12775,-10.453159 -1.10031,-18.159237 -2.31034,-2.463095 -8.90235,-3.73239 -14.38945,-0.203906 -4.50462,2.896306 -5.219,8.079317 -4.46194,11.637787 0.52317,2.460978 2.07116,5.416197 4.71064,5.645856 1.9424,0.168628 3.3909,2.01683 3.23533,4.127853 -0.15522,2.110669 -1.85314,3.685822 -3.79765,3.516136 -5.30014,-0.460728 -9.6266,-4.999214 -11.02255,-11.562645 -1.70356,-8.008409 1.33597,-15.845015 7.74348,-19.965107 8.35166,-5.369984 18.40124,-3.491089 22.92279,1.329267 9.23043,9.841442 6.69643,21.423843 1.72191,28.352046 -4.61292,6.424084 -11.5757,10.161059 -18.30917,13.775268 -8.24089,4.422775 -16.02422,8.600369 -19.39819,17.193679 -1.94592,4.95724 -0.17498,8.53935 2.44369,9.89049 1.76001,0.90805 2.50931,3.19511 1.67393,5.10822 -0.6036,1.38183 -1.86972,2.1904 -3.18946,2.19075"
         style="display:inline;fill:#ac9d93;fill-opacity:1;fill-rule:nonzero;stroke:none;stroke-width:0.0352778" />
      <path
         id="path215-3"
         d="m 80.295328,73.576064 h -15.59349 c -1.94839,0 -3.52778,-1.716616 -3.52778,-3.834342 0,-2.117372 1.57939,-3.834342 3.52778,-3.834342 h 15.59349 c 1.94839,0 3.52777,1.71697 3.52777,3.834342 0,2.117726 -1.57938,3.834342 -3.52777,3.834342"
         style="display:inline;fill:#917c6f;fill-opacity:1;fill-rule:nonzero;stroke:none;stroke-width:0.0352778" />
      <path
         id="path216-6"
         d="m 113.43986,190.93995 -10.53994,-0.018 0.11183,-64.60561 10.53959,0.0183 -0.11148,64.60526"
         style="fill:#ac9d93;fill-opacity:1;fill-rule:nonzero;stroke:none;stroke-width:0.0352778" />
      <path
         id="path217-0"
         d="m 106.76142,190.93995 -2.45039,-0.018 0.11183,-64.60561 2.45004,0.0183 -0.11148,64.60526"
         style="fill:#c8beb7;fill-opacity:1;fill-rule:nonzero;stroke:none;stroke-width:0.0352778" />
      <path
         id="path218-6"
         d="m 102.98811,146.70832 c 0,0 1.27071,-1.34585 5.3714,-1.34585 4.10069,0 5.14032,1.34585 5.14032,1.34585 v -4.17231 l -10.51172,0.09 v 4.08235"
         style="fill:#917c6f;fill-opacity:1;fill-rule:nonzero;stroke:none;stroke-width:0.0352778" />
      <path
         id="path219-2"
         d="m 119.0836,133.69752 c 0,5.99652 -4.86128,10.85779 -10.85815,10.85779 -5.99687,0 -10.858152,-4.86127 -10.858152,-10.85779 0,-5.99652 4.861282,-10.85815 10.858152,-10.85815 5.99687,0 10.85815,4.86163 10.85815,10.85815"
         style="fill:#ac9d93;fill-opacity:1;fill-rule:nonzero;stroke:none;stroke-width:0.0352778" />
      <path
         id="path220-6"
         d="m 108.22545,122.83937 c -5.99687,0 -10.858152,4.86163 -10.858152,10.85815 0,0.33196 0.0173,0.66005 0.0466,0.9846 3.328112,-0.5521 7.306382,-1.05622 10.758662,-1.05622 3.47275,0 7.49971,0.51012 10.8638,1.06645 0.0296,-0.32808 0.0473,-0.65934 0.0473,-0.99483 0,-5.99652 -4.86128,-10.85815 -10.85815,-10.85815"
         style="fill:#917c6f;fill-opacity:1;fill-rule:nonzero;stroke:none;stroke-width:0.0352778" />
      <path
         id="path221-1"
         d="m 135.6444,199.93861 c -1.50813,-4.95794 -3.42829,-12.43577 -4.69089,-14.87241 -6.61317,-12.75856 -15.46189,-17.16052 -22.08248,-17.14888 l -0.68297,0.001 -0.68263,0.001 c -6.6234,0.0117 -15.479892,4.44042 -22.069422,17.23355 -1.24954,2.4257 0.38346,9.87002 -1.10138,14.78563 H 135.6444"
         style="fill:#ac9d93;fill-opacity:1;fill-rule:nonzero;stroke:none;stroke-width:0.0352778" />
      <path
         id="path222-8"
         d="m 97.963848,199.93861 c 0.99695,-4.91561 -0.18486,-12.35993 0.66957,-14.78563 3.173942,-9.01135 7.174802,-13.8684 10.887432,-15.95896 -0.84914,-0.47378 -0.72637,-0.8061 -1.52823,-1.01212 -4.32365,1.11055 -13.328652,5.91608 -17.222612,16.97108 -0.85443,2.4257 0.0205,9.87002 -0.97649,14.78563 h 8.17033"
         style="fill:#c8beb7;fill-opacity:1;fill-rule:nonzero;stroke:none;stroke-width:0.0352778" />
      <path
         id="path223-7"
         d="m 142.86259,58.018916 -34.2699,-0.05927 -34.270242,-0.05962 c 0,0 -0.93698,34.514016 2.51812,47.201314 5.18654,19.04331 17.09526,27.3036 30.256702,27.32653 l 1.35643,0.002 1.35678,0.003 c 13.16038,0.0229 25.09803,-8.1968 30.35089,-27.2207 3.4992,-12.674246 2.70122,-47.192848 2.70122,-47.192848"
         style="fill:#e3dedb;fill-opacity:1;fill-rule:nonzero;stroke:none;stroke-width:0.0352778" />
      <path
         id="path224-9"
         d="m 108.59269,57.959649 -0.77293,-0.0014 v 74.470691 l 0.63394,7e-4 1.35678,0.003 c 13.16038,0.0229 25.09803,-8.1968 30.35089,-27.22069 3.4992,-12.674251 2.70122,-47.192853 2.70122,-47.192853 l -34.2699,-0.05927"
         style="fill:#917c6f;fill-opacity:1;fill-rule:nonzero;stroke:none;stroke-width:0.0352778" />
      <path
         id="path225-2"
         d="m 106.9297,128.60976 c -9.138012,-0.0173 -13.200952,-12.73352 -14.808912,-19.86775 -1.42769,-6.33589 -1.93216,-21.374098 -1.97661,-34.232848 l 36.143142,0.06632 c -0.0917,12.859103 -0.65087,27.894138 -2.09973,34.225088 -1.62984,7.12082 -5.72806,19.81307 -14.85618,19.81307 l -2.40171,-0.004"
         style="fill:#c8beb7;fill-opacity:1;fill-rule:nonzero;stroke:none;stroke-width:0.0352778" />
      <path
         id="path226-0"
         d="m 138.7626,65.691833 -29.47388,-0.05115 -29.474232,-0.05151 c 0,0 -0.01,0.381 -0.024,1.067506 l 24.206202,0.04233 26.65166,0.05115 c 0,0 0.68651,29.687663 -2.32304,40.587791 -3.47028,12.56842 -7.51205,19.64831 -15.63829,22.24899 10.37167,-0.91158 19.55024,-8.08672 23.75288,-23.30732 3.00955,-10.900485 2.32269,-40.587795 2.32269,-40.587795"
         style="fill:#c8beb7;fill-opacity:1;fill-rule:nonzero;stroke:none;stroke-width:0.0352778" />
      <path
         id="path227-2"
         d="m 89.994248,105.7935 c -3.04941,-10.814054 -2.24014,-40.144 -2.23273,-40.407172 l -7.30533,-0.0063 c 0,0 -0.83044,29.550785 2.23238,40.413872 4.5974,16.30433 15.15463,23.37682 26.821702,23.39658 l 1.20262,0.001 1.20226,0.002 c 0.26141,3.5e-4 0.52176,-0.007 0.78211,-0.0138 -11.4815,-0.20532 -18.167002,-7.29968 -22.703012,-23.38705"
         style="fill:#ac9d93;fill-opacity:1;fill-rule:nonzero;stroke:none;stroke-width:0.0352778" />
      <path
         id="path228-3"
         d="m 108.59269,57.959649 -34.270242,-0.05962 c 0,0 -0.48155,9.850262 0.0765,23.002171 5.05319,-0.8763 15.65592,-1.839384 33.420762,-1.839384 18.87008,0 30.00234,1.112662 34.86679,1.980495 0.61207,-13.162493 0.17604,-23.024396 0.17604,-23.024396 l -34.2699,-0.05927"
         style="fill:#6c5d53;fill-opacity:1;fill-rule:nonzero;stroke:none;stroke-width:0.0352778" />
      <path
         id="path229-7"
         d="M 145.56698,77.082323 H 70.778088 V 41.315946 h 74.788892 v 35.766377"
         style="fill:#ac9d93;fill-opacity:1;fill-rule:nonzero;stroke:none;stroke-width:0.0352778" />
      <path
         id="path230-5"
         d="m 83.815698,77.082323 h -8.45185 V 41.315946 h 8.45185 v 35.766377"
         style="fill:#c8beb7;fill-opacity:1;fill-rule:nonzero;stroke:none;stroke-width:0.0352778" />
      <path
         id="path231-9"
         d="m 91.576458,77.082323 h -4.92372 V 41.315946 h 4.92372 v 35.766377"
         style="fill:#e3dedb;fill-opacity:1;fill-rule:nonzero;stroke:none;stroke-width:0.0352778" />
      <path
         id="path232-2"
         d="m 142.02403,77.082323 h -8.45185 V 41.315946 h 8.45185 v 35.766377"
         style="fill:#917c6f;fill-opacity:1;fill-rule:nonzero;stroke:none;stroke-width:0.0352778" />
      <path
         id="path233-2"
         d="m 70.778088,52.726544 c 0,0 1.77553,-2.126545 35.753672,-2.126545 33.97886,0 39.03522,2.143125 39.03522,2.143125 V 42.620871 H 70.778088 v 10.105673"
         style="fill:#917c6f;fill-opacity:1;fill-rule:nonzero;stroke:none;stroke-width:0.0352778" />
      <path
         id="path234-8"
         d="M 149.98588,48.947941 H 66.359188 V 38.62284 h 83.626692 v 10.325101"
         style="fill:#c8beb7;fill-opacity:1;fill-rule:nonzero;stroke:none;stroke-width:0.0352778" />
      <path
         id="path235-9"
         d="M 71.986348,204.9537 H 144.35872 V 185.99146 H 71.986348 Z"
         style="fill:#ac9d93;fill-opacity:1;fill-rule:nonzero;stroke:none;stroke-width:0.0352778" />
      <path
         id="path236-7"
         d="m 76.545298,204.9537 h 19.85437 v -18.96224 h -19.85437 z"
         style="fill:#e3dedb;fill-opacity:1;fill-rule:nonzero;stroke:none;stroke-width:0.0352778" />
      <path
         id="path237-3"
         d="m 112.57591,204.9537 h 27.77313 v -18.96224 h -27.77313 z"
         style="fill:#917c6f;fill-opacity:1;fill-rule:nonzero;stroke:none;stroke-width:0.0352778" />
      <path
         id="path238-6"
         d="M 120.12606,171.79223 H 96.219008 v -8.73125 h 23.907052 v 8.73125"
         style="fill:#917c6f;fill-opacity:1;fill-rule:nonzero;stroke:none;stroke-width:0.0352778" />
      <path
         id="path239-1"
         d="m 81.845788,49.017085 h -8.45186 V 38.62284 h 8.45186 v 10.394245"
         style="fill:#e3dedb;fill-opacity:1;fill-rule:nonzero;stroke:none;stroke-width:0.0352778" />
      <path
         id="path240-2"
         d="m 144.63988,49.017085 h -5.98205 V 38.62284 h 5.98205 v 10.394245"
         style="fill:#ac9d93;fill-opacity:1;fill-rule:nonzero;stroke:none;stroke-width:0.0352778" />
      <path
         id="path241-9"
         d="m 78.994638,109.64548 c -4.39844,-11.20352 -14.15521,-16.440153 -22.76335,-21.060131 -6.30025,-3.381376 -12.25056,-6.575073 -15.87112,-11.617326 -2.0768,-2.892778 -6.12775,-10.453159 1.10032,-18.159237 2.31034,-2.463095 8.90235,-3.73239 14.38945,-0.203906 4.50462,2.896306 5.21864,8.079317 4.46194,11.637787 -0.27094,1.27388 -0.8188,2.677231 -1.64818,3.769431 -0.84914,-0.594431 -1.88101,-0.94615 -2.9965,-0.94615 -2.88995,0 -5.23275,2.342797 -5.23275,5.232753 0,2.865614 2.30434,5.190067 5.16043,5.229225 0.18698,0.01623 0.37606,0.02152 0.56868,0.0046 5.30014,-0.460728 9.6266,-4.999214 11.02254,-11.562645 1.70357,-8.008409 -1.33597,-15.845368 -7.74347,-19.965107 -8.35166,-5.369984 -18.40124,-3.491089 -22.92279,1.329267 -9.23079,9.841442 -6.69643,21.42349 -1.72156,28.352046 4.61257,6.424084 11.57534,10.161059 18.30881,13.775268 8.24054,4.422775 16.02423,8.600365 19.39784,17.193685 1.94628,4.95688 0.17498,8.53934 -2.44298,9.89012 -1.76036,0.90841 -2.51002,3.19547 -1.67428,5.10823 0.6036,1.38218 1.86936,2.1911 3.18946,2.1911 0.50694,0 1.022,-0.11959 1.51059,-0.37148 5.6575,-2.91923 9.50313,-10.66729 5.90692,-19.82752"
         style="fill:#ac9d93;fill-opacity:1;fill-rule:nonzero;stroke:none;stroke-width:0.0352778" />
      <path
         id="path242-3"
         d="M 149.98588,39.775012 H 66.359188 V 38.62284 h 83.626692 v 1.152172"
         style="fill:#ac9d93;fill-opacity:1;fill-rule:nonzero;stroke:none;stroke-width:0.0352778" />
      <path
         id="path243-1"
         d="m 36.562168,83.097184 c -4.97452,-6.928203 -7.94068,-18.769895 1.29011,-28.610985 4.5212,-4.820356 15.00293,-6.440311 23.35459,-1.070328 0.18768,0.121003 0.37218,0.245534 0.55457,0.372886 -0.71473,-0.651933 -1.48802,-1.249891 -2.31881,-1.783997 -8.35166,-5.369984 -18.40124,-3.491089 -22.92279,1.329267 -9.23079,9.841442 -6.69643,21.42349 -1.72156,28.352046 1.9117,2.662414 4.23051,4.859162 6.76628,6.781095 -1.84785,-1.575858 -3.5433,-3.337631 -5.00239,-5.369984"
         style="fill:#c8beb7;fill-opacity:1;fill-rule:nonzero;stroke:none;stroke-width:0.0352778" />
      <path
         id="path244-9"
         d="m 70.151908,129.06484 c -0.83573,-1.91311 -0.0861,-4.20017 1.67393,-5.10822 2.61831,-1.35114 4.38926,-4.93325 2.44334,-9.89048 -1.80058,-4.58576 -4.85705,-7.91352 -8.56827,-10.6927 2.91183,2.49096 5.29802,5.44548 6.80402,9.28158 1.94628,4.95689 0.17498,8.53935 -2.44298,9.89013 -1.76036,0.90841 -2.51002,3.19547 -1.67428,5.10823 0.43038,0.98566 1.19979,1.67216 2.0828,1.98966 -0.11854,-0.18097 -0.22825,-0.37077 -0.31856,-0.5782"
         style="fill:#c8beb7;fill-opacity:1;fill-rule:nonzero;stroke:none;stroke-width:0.0352778" />
      <path
         id="path245-4"
         d="m 149.86875,72.614039 c -1.20473,-7.611886 1.83939,-14.917915 7.94773,-18.84539 8.35167,-5.369631 18.40125,-3.491089 22.9228,1.32962 3.01766,3.217333 4.77167,6.620581 5.60035,9.986786 -0.60184,-3.932061 -2.40665,-7.969956 -5.95313,-11.751028 -4.52155,-4.820356 -14.57113,-6.699251 -22.92279,-1.329267 -6.40751,4.119739 -9.44704,11.956698 -7.74348,19.965107 0.0459,0.216958 0.096,0.431447 0.14852,0.644172"
         style="fill:#c8beb7;fill-opacity:1;fill-rule:nonzero;stroke:none;stroke-width:0.0352778" />
      <path
         id="path246-7"
         d="m 146.84474,122.54515 c -1.27529,-0.65793 -2.34809,-1.84644 -2.88995,-3.46392 0.1979,2.52836 1.54058,4.3501 3.24273,5.22817 0.75424,0.38911 1.32151,1.03258 1.65911,1.7907 0.0311,-1.46615 -0.71437,-2.88537 -2.01189,-3.55495"
         style="fill:#917c6f;fill-opacity:1;fill-rule:nonzero;stroke:none;stroke-width:0.0352778" />
      <path
         id="path247-8"
         d="m 161.3051,75.888523 c -2.38971,-0.207786 -3.88161,-2.649362 -4.53143,-4.936067 0.0434,0.363714 0.1016,0.716492 0.17357,1.0541 0.52317,2.460978 2.07116,5.416197 4.71064,5.645856 1.29046,0.112183 2.35973,0.967669 2.88855,2.146653 0.0441,-2.018595 -1.36631,-3.747912 -3.24133,-3.910542"
         style="fill:#c8beb7;fill-opacity:1;fill-rule:nonzero;stroke:none;stroke-width:0.0352778" />
      <path
         id="path248-4"
         d="m 138.26448,111.40937 c 4.39843,-11.20352 14.15521,-16.440154 22.76369,-21.060132 6.29991,-3.381376 12.25021,-6.57472 15.87077,-11.617326 1.50672,-2.098323 4.04813,-6.653389 2.57352,-11.937648 0.55774,4.519789 -1.59033,8.312856 -2.9263,10.173759 -3.62055,5.042253 -9.57086,8.23595 -15.87076,11.617326 -8.60849,4.619978 -18.36526,9.856611 -22.7637,21.060131 -1.59526,4.06364 -1.72402,7.8479 -0.88159,11.05747 -0.39546,-2.8 -0.0776,-5.95207 1.23437,-9.29358"
         style="fill:#917c6f;fill-opacity:1;fill-rule:nonzero;stroke:none;stroke-width:0.0352778" />
      <path
         id="path250-0"
         d="M 144.35872,187.36596 H 71.986348 v -1.37442 h 72.372372 v 1.37442"
         style="fill:#c8beb7;fill-opacity:1;fill-rule:nonzero;stroke:none;stroke-width:0.0352778" />
    </g>
  </g>
  <g
     inkscape:groupmode="layer"
     id="layer3"
     inkscape:label="Capa 3"
     style="display:none"
     transform="translate(-30.327603,-38.62284)">
    <g
       id="g3"
       transform="matrix(1.5225148,0,0,0.87691935,1.1218332,9.7762742)"
       style="display:inline">
      <path
         id="path213-6"
         d="M 151.25829,73.513941 H 135.6648 c -1.94839,0 -3.52777,-1.71662 -3.52777,-3.83434 0,-2.11738 1.57938,-3.83435 3.52777,-3.83435 h 15.59349 c 1.94839,0 3.52778,1.71697 3.52778,3.83435 0,2.11772 -1.57939,3.83434 -3.52778,3.83434"
         style="display:inline;fill:#f16e17;fill-opacity:1;fill-rule:nonzero;stroke:none;stroke-width:0.0352778" />
      <path
         id="path214-93"
         d="m 144.71532,129.78235 c -0.50694,0 -1.022,-0.11959 -1.51024,-0.37148 -5.65785,-2.91923 -9.50348,-10.66729 -5.90727,-19.82752 4.39844,-11.203519 14.15521,-16.440149 22.7637,-21.060129 6.2999,-3.38137 12.25021,-6.57507 15.87076,-11.61732 2.07716,-2.89278 6.12775,-10.45316 -1.10031,-18.15924 -2.31034,-2.4631 -8.90235,-3.73239 -14.38945,-0.20391 -4.50462,2.89631 -5.219,8.07932 -4.46194,11.63779 0.52317,2.46098 2.07116,5.4162 4.71064,5.64586 1.9424,0.16862 3.3909,2.01683 3.23533,4.12785 -0.15522,2.11067 -1.85314,3.68582 -3.79765,3.51614 -5.30014,-0.46073 -9.6266,-4.99922 -11.02255,-11.56265 -1.70356,-8.00841 1.33597,-15.84501 7.74348,-19.96511 8.35166,-5.36998 18.40124,-3.49109 22.92279,1.32927 9.23043,9.84144 6.69643,21.42384 1.72191,28.35205 -4.61292,6.42408 -11.5757,10.16106 -18.30917,13.77526 -8.24089,4.42278 -16.02422,8.600369 -19.39819,17.193689 -1.94592,4.95723 -0.17498,8.53934 2.44369,9.89048 1.76001,0.90805 2.50931,3.19511 1.67393,5.10822 -0.6036,1.38183 -1.86972,2.1904 -3.18946,2.19075"
         style="display:inline;fill:#f75910;fill-opacity:1;fill-rule:nonzero;stroke:none;stroke-width:0.0352778" />
      <path
         id="path215-7"
         d="m 79.681443,73.513941 h -15.59349 c -1.94839,0 -3.52778,-1.71662 -3.52778,-3.83434 0,-2.11738 1.57939,-3.83435 3.52778,-3.83435 h 15.59349 c 1.94839,0 3.52777,1.71697 3.52777,3.83435 0,2.11772 -1.57938,3.83434 -3.52777,3.83434"
         style="display:inline;fill:#f16e17;fill-opacity:1;fill-rule:nonzero;stroke:none;stroke-width:0.0352778" />
      <path
         id="path216-4"
         d="m 112.82597,190.87782 -10.53994,-0.018 0.11183,-64.60561 10.53959,0.0183 -0.11148,64.60526"
         style="fill:#f75910;fill-opacity:1;fill-rule:nonzero;stroke:none;stroke-width:0.0352778" />
      <path
         id="path217-5"
         d="m 106.14753,190.87782 -2.45039,-0.018 0.11183,-64.60561 2.45004,0.0183 -0.11148,64.60526"
         style="fill:#f98f2d;fill-opacity:1;fill-rule:nonzero;stroke:none;stroke-width:0.0352778" />
      <path
         id="path218-2"
         d="m 102.37422,146.64619 c 0,0 1.27071,-1.34585 5.3714,-1.34585 4.10069,0 5.14032,1.34585 5.14032,1.34585 v -4.17231 l -10.51172,0.09 v 4.08235"
         style="fill:#e92d1e;fill-opacity:1;fill-rule:nonzero;stroke:none;stroke-width:0.0352778" />
      <path
         id="path219-5"
         d="m 118.46971,133.63539 c 0,5.99652 -4.86128,10.85779 -10.85815,10.85779 -5.99687,0 -10.858147,-4.86127 -10.858147,-10.85779 0,-5.99652 4.861277,-10.85815 10.858147,-10.85815 5.99687,0 10.85815,4.86163 10.85815,10.85815"
         style="fill:#f75910;fill-opacity:1;fill-rule:nonzero;stroke:none;stroke-width:0.0352778" />
      <path
         id="path220-4"
         d="m 107.61156,122.77724 c -5.99687,0 -10.858147,4.86163 -10.858147,10.85815 0,0.33196 0.0173,0.66005 0.0466,0.9846 3.328107,-0.5521 7.306377,-1.05622 10.758657,-1.05622 3.47275,0 7.49971,0.51012 10.8638,1.06645 0.0296,-0.32808 0.0473,-0.65934 0.0473,-0.99483 0,-5.99652 -4.86128,-10.85815 -10.85815,-10.85815"
         style="fill:#e92d1e;fill-opacity:1;fill-rule:nonzero;stroke:none;stroke-width:0.0352778" />
      <path
         id="path221-7"
         d="m 135.03051,199.87648 c -1.50813,-4.95794 -3.42829,-12.43577 -4.69089,-14.87241 -6.61317,-12.75856 -15.46189,-17.16052 -22.08248,-17.14888 l -0.68297,0.001 -0.68263,0.001 c -6.6234,0.0117 -15.479887,4.44042 -22.069417,17.23355 -1.24954,2.4257 0.38346,9.87002 -1.10138,14.78563 h 51.309767"
         style="fill:#f75910;fill-opacity:1;fill-rule:nonzero;stroke:none;stroke-width:0.0352778" />
      <path
         id="path222-4"
         d="m 97.349963,199.87648 c 0.99695,-4.91561 -0.18486,-12.35993 0.66957,-14.78563 3.173937,-9.01135 7.174797,-13.8684 10.887427,-15.95896 -0.84914,-0.47378 -0.72637,-0.8061 -1.52823,-1.01212 -4.32365,1.11055 -13.328647,5.91608 -17.222607,16.97108 -0.85443,2.4257 0.0205,9.87002 -0.97649,14.78563 h 8.17033"
         style="fill:#f98f2d;fill-opacity:1;fill-rule:nonzero;stroke:none;stroke-width:0.0352778" />
      <path
         id="path223-4"
         d="m 142.2487,57.956791 -34.2699,-0.0593 -34.270237,-0.0596 c 0,0 -0.93698,34.51402 2.51812,47.201319 5.18654,19.0433 17.09526,27.30359 30.256697,27.32652 l 1.35643,0.002 1.35678,0.003 c 13.16038,0.0229 25.09803,-8.1968 30.35089,-27.22069 3.4992,-12.674249 2.70122,-47.192849 2.70122,-47.192849"
         style="fill:#f75910;fill-opacity:1;fill-rule:nonzero;stroke:none;stroke-width:0.0352778" />
      <path
         id="path224-3"
         d="m 107.9788,57.897521 -0.77293,-10e-4 v 74.470689 l 0.63394,7e-4 1.35678,0.003 c 13.16038,0.0229 25.09803,-8.1968 30.35089,-27.22069 3.4992,-12.674249 2.70122,-47.192849 2.70122,-47.192849 l -34.2699,-0.0593"
         style="fill:#f9792d;fill-opacity:1;fill-rule:nonzero;stroke:none;stroke-width:0.0352778" />
      <path
         id="path225-0"
         d="m 106.31581,128.54763 c -9.138007,-0.0173 -13.200947,-12.73352 -14.808907,-19.86774 -1.42769,-6.33589 -1.93216,-21.374099 -1.97661,-34.232859 l 36.143137,0.0663 c -0.0917,12.8591 -0.65087,27.894139 -2.09973,34.225089 -1.62984,7.12082 -5.72806,19.81306 -14.85618,19.81306 l -2.40171,-0.004"
         style="fill:#f75910;fill-opacity:1;fill-rule:nonzero;stroke:none;stroke-width:0.0352778" />
      <path
         id="path226-7"
         d="m 138.14871,65.629711 -29.47388,-0.0512 -29.474227,-0.0515 c 0,0 -0.01,0.381 -0.024,1.0675 l 24.206197,0.0423 26.65166,0.0512 c 0,0 0.68651,29.68766 -2.32304,40.587789 -3.47028,12.56842 -7.51205,19.64831 -15.63829,22.24899 10.37167,-0.91158 19.55024,-8.08672 23.75288,-23.30732 3.00955,-10.900479 2.32269,-40.587789 2.32269,-40.587789"
         style="fill:#e92d1e;fill-opacity:1;fill-rule:nonzero;stroke:none;stroke-width:0.0352778" />
      <path
         id="path227-8"
         d="m 89.380363,105.73137 c -3.04941,-10.814049 -2.24014,-40.143999 -2.23273,-40.407169 l -7.30533,-0.006 c 0,0 -0.83044,29.55079 2.23238,40.413869 4.5974,16.30433 15.15463,23.37682 26.821697,23.39658 l 1.20262,0.001 1.20226,0.002 c 0.26141,3.5e-4 0.52176,-0.007 0.78211,-0.0138 -11.4815,-0.20532 -18.166997,-7.29968 -22.703007,-23.38705"
         style="fill:#f98f2d;fill-opacity:1;fill-rule:nonzero;stroke:none;stroke-width:0.0352778" />
      <path
         id="path228-6"
         d="m 107.9788,57.897521 -34.270237,-0.0596 c 0,0 -0.48155,9.85026 0.0765,23.00217 5.05319,-0.8763 15.65592,-1.83938 33.420757,-1.83938 18.87008,0 30.00234,1.11266 34.86679,1.98049 0.61207,-13.16249 0.17604,-23.02439 0.17604,-23.02439 l -34.2699,-0.0593"
         style="fill:#e92d1e;fill-opacity:1;fill-rule:nonzero;stroke:none;stroke-width:0.0352778" />
      <path
         id="path229-8"
         d="M 144.95309,77.020201 H 70.164203 v -35.76638 h 74.788887 v 35.76638"
         style="fill:#f75910;fill-opacity:1;fill-rule:nonzero;stroke:none;stroke-width:0.0352778" />
      <path
         id="path230-8"
         d="m 83.201813,77.020201 h -8.45185 v -35.76638 h 8.45185 v 35.76638"
         style="fill:#f98f2d;fill-opacity:1;fill-rule:nonzero;stroke:none;stroke-width:0.0352778" />
      <path
         id="path231-4"
         d="m 90.962573,77.020201 h -4.92372 v -35.76638 h 4.92372 v 35.76638"
         style="fill:#f98f2d;fill-opacity:1;fill-rule:nonzero;stroke:none;stroke-width:0.0352778" />
      <path
         id="path232-3"
         d="m 141.41014,77.020201 h -8.45185 v -35.76638 h 8.45185 v 35.76638"
         style="fill:#e92d1e;fill-opacity:1;fill-rule:nonzero;stroke:none;stroke-width:0.0352778" />
      <path
         id="path233-1"
         d="m 70.164203,52.664421 c 0,0 1.77553,-2.12655 35.753667,-2.12655 33.97886,0 39.03522,2.14313 39.03522,2.14313 V 42.558741 H 70.164203 v 10.10568"
         style="fill:#e92d1e;fill-opacity:1;fill-rule:nonzero;stroke:none;stroke-width:0.0352778" />
      <path
         id="path234-4"
         d="M 149.37199,48.885811 H 65.745303 v -10.3251 h 83.626687 v 10.3251"
         style="fill:#f75910;fill-opacity:1;fill-rule:nonzero;stroke:none;stroke-width:0.0352778" />
      <path
         id="path235-92"
         d="M 71.372463,204.89157 H 143.74483 V 185.92933 H 71.372463 Z"
         style="fill:#f75910;fill-opacity:1;fill-rule:nonzero;stroke:none;stroke-width:0.0352778" />
      <path
         id="path236-0"
         d="m 75.931413,204.89157 h 19.85437 v -18.96224 h -19.85437 z"
         style="fill:#f98f2d;fill-opacity:1;fill-rule:nonzero;stroke:none;stroke-width:0.0352778" />
      <path
         id="path237-6"
         d="m 111.96202,204.89157 h 27.77313 v -18.96224 h -27.77313 z"
         style="fill:#e92d1e;fill-opacity:1;fill-rule:nonzero;stroke:none;stroke-width:0.0352778" />
      <path
         id="path238-8"
         d="M 119.51217,171.7301 H 95.605123 v -8.73125 h 23.907047 v 8.73125"
         style="fill:#e92d1e;fill-opacity:1;fill-rule:nonzero;stroke:none;stroke-width:0.0352778" />
      <path
         id="path239-9"
         d="m 81.231903,48.954961 h -8.45186 v -10.39425 h 8.45186 v 10.39425"
         style="fill:#f98f2d;fill-opacity:1;fill-rule:nonzero;stroke:none;stroke-width:0.0352778" />
      <path
         id="path240-26"
         d="m 144.02599,48.954961 h -5.98205 v -10.39425 h 5.98205 v 10.39425"
         style="fill:#e92d1e;fill-opacity:1;fill-rule:nonzero;stroke:none;stroke-width:0.0352778" />
      <path
         id="path241-6"
         d="m 78.380753,109.58335 c -4.39844,-11.203519 -14.15521,-16.440149 -22.76335,-21.060129 -6.30025,-3.38137 -12.25056,-6.57507 -15.87112,-11.61732 -2.0768,-2.89278 -6.12775,-10.45316 1.10032,-18.15924 2.31034,-2.4631 8.90235,-3.73239 14.38945,-0.20391 4.50462,2.89631 5.21864,8.07932 4.46194,11.63779 -0.27094,1.27388 -0.8188,2.67723 -1.64818,3.76943 -0.84914,-0.59443 -1.88101,-0.94615 -2.9965,-0.94615 -2.88995,0 -5.23275,2.3428 -5.23275,5.23275 0,2.86562 2.30434,5.19007 5.16043,5.22923 0.18698,0.0162 0.37606,0.0215 0.56868,0.005 5.30014,-0.46073 9.6266,-4.99922 11.02254,-11.56265 1.70357,-8.00841 -1.33597,-15.84537 -7.74347,-19.96511 -8.35166,-5.36998 -18.40124,-3.49109 -22.92279,1.32927 -9.23079,9.84144 -6.69643,21.42349 -1.72156,28.35205 4.61257,6.42408 11.57534,10.16106 18.30881,13.77526 8.24054,4.42278 16.02423,8.600369 19.39784,17.193689 1.94628,4.95688 0.17498,8.53934 -2.44298,9.89012 -1.76036,0.90841 -2.51002,3.19547 -1.67428,5.10823 0.6036,1.38218 1.86936,2.1911 3.18946,2.1911 0.50694,0 1.022,-0.11959 1.51059,-0.37148 5.6575,-2.91923 9.50313,-10.66729 5.90692,-19.82752"
         style="fill:#f75910;fill-opacity:1;fill-rule:nonzero;stroke:none;stroke-width:0.0352778" />
      <path
         id="path242-4"
         d="M 149.37199,39.712891 H 65.745303 v -1.15218 h 83.626687 v 1.15218"
         style="fill:#f98f2d;fill-opacity:1;fill-rule:nonzero;stroke:none;stroke-width:0.0352778" />
      <path
         id="path243-9"
         d="m 35.948283,83.035061 c -4.97452,-6.92821 -7.94068,-18.7699 1.29011,-28.61099 4.5212,-4.82035 15.00293,-6.44031 23.35459,-1.07033 0.18768,0.12101 0.37218,0.24554 0.55457,0.37289 -0.71473,-0.65193 -1.48802,-1.24989 -2.31881,-1.784 -8.35166,-5.36998 -18.40124,-3.49109 -22.92279,1.32927 -9.23079,9.84144 -6.69643,21.42349 -1.72156,28.35205 1.9117,2.66241 4.23051,4.85916 6.76628,6.78109 -1.84785,-1.57586 -3.5433,-3.33763 -5.00239,-5.36998"
         style="fill:#f98f2d;fill-opacity:1;fill-rule:nonzero;stroke:none;stroke-width:0.0352778" />
      <path
         id="path244-5"
         d="m 69.538023,129.00271 c -0.83573,-1.91311 -0.0861,-4.20017 1.67393,-5.10822 2.61831,-1.35114 4.38926,-4.93325 2.44334,-9.89048 -1.80058,-4.58576 -4.85705,-7.91351 -8.56827,-10.6927 2.91183,2.49097 5.29802,5.44548 6.80402,9.28159 1.94628,4.95688 0.17498,8.53934 -2.44298,9.89012 -1.76036,0.90841 -2.51002,3.19547 -1.67428,5.10823 0.43038,0.98566 1.19979,1.67216 2.0828,1.98966 -0.11854,-0.18097 -0.22825,-0.37077 -0.31856,-0.5782"
         style="fill:#f98f2d;fill-opacity:1;fill-rule:nonzero;stroke:none;stroke-width:0.0352778" />
      <path
         id="path245-0"
         d="m 149.25486,72.551911 c -1.20473,-7.61188 1.83939,-14.91791 7.94773,-18.84539 8.35167,-5.36963 18.40125,-3.49109 22.9228,1.32962 3.01766,3.21734 4.77167,6.62058 5.60035,9.98679 -0.60184,-3.93206 -2.40665,-7.96996 -5.95313,-11.75103 -4.52155,-4.82036 -14.57113,-6.69925 -22.92279,-1.32927 -6.40751,4.11974 -9.44704,11.9567 -7.74348,19.96511 0.0459,0.21696 0.096,0.43145 0.14852,0.64417"
         style="fill:#f98f2d;fill-opacity:1;fill-rule:nonzero;stroke:none;stroke-width:0.0352778" />
      <path
         id="path246-4"
         d="m 146.23085,122.48302 c -1.27529,-0.65793 -2.34809,-1.84644 -2.88995,-3.46392 0.1979,2.52836 1.54058,4.3501 3.24273,5.22817 0.75424,0.38911 1.32151,1.03258 1.65911,1.7907 0.031,-1.46615 -0.71437,-2.88537 -2.01189,-3.55495"
         style="fill:#e76b19;fill-opacity:1;fill-rule:nonzero;stroke:none;stroke-width:0.0352778" />
      <path
         id="path247-87"
         d="m 160.69121,75.826401 c -2.38971,-0.20779 -3.88161,-2.64937 -4.53143,-4.93607 0.0434,0.36371 0.1016,0.71649 0.17357,1.0541 0.52317,2.46098 2.07116,5.4162 4.71064,5.64585 1.29046,0.11219 2.35973,0.96767 2.88855,2.14666 0.0441,-2.0186 -1.36631,-3.74791 -3.24133,-3.91054"
         style="fill:#f8a32d;fill-opacity:1;fill-rule:nonzero;stroke:none;stroke-width:0.0352778" />
      <path
         id="path248-1"
         d="m 137.65059,111.34724 c 4.39843,-11.20352 14.15521,-16.440149 22.76369,-21.060129 6.29991,-3.38137 12.25021,-6.57472 15.87077,-11.61733 1.50672,-2.09832 4.04813,-6.65338 2.57352,-11.93764 0.55774,4.51979 -1.59033,8.31285 -2.9263,10.17376 -3.62055,5.04225 -9.57086,8.23595 -15.87076,11.61732 -8.60849,4.61998 -18.36526,9.85661 -22.7637,21.060129 -1.59526,4.06365 -1.72402,7.8479 -0.88159,11.05747 -0.39546,-2.8 -0.0776,-5.95207 1.23437,-9.29358"
         style="fill:#e92d1e;fill-opacity:1;fill-rule:nonzero;stroke:none;stroke-width:0.0352778" />
      <path
         id="path250-2"
         d="M 143.74483,187.30383 H 71.372463 v -1.37442 h 72.372367 v 1.37442"
         style="fill:#f98f2d;fill-opacity:1;fill-rule:nonzero;stroke:none;stroke-width:0.0352778" />
    </g>
  </g>
</svg>
