<?xml version="1.0" encoding="UTF-8" standalone="no"?>
<!-- Created with Inkscape (http://www.inkscape.org/) -->

<svg
   width="45.173267"
   height="48.87833"
   viewBox="0 0 11.952093 12.932392"
   version="1.1"
   id="svg1"
   inkscape:version="1.4.3 (1:1.4.3+202512261035+0d15f75042)"
   sodipodi:docname="refresh.svg"
   xml:space="preserve"
   xmlns:inkscape="http://www.inkscape.org/namespaces/inkscape"
   xmlns:sodipodi="http://sodipodi.sourceforge.net/DTD/sodipodi-0.dtd"
   xmlns="http://www.w3.org/2000/svg"
   xmlns:svg="http://www.w3.org/2000/svg"><sodipodi:namedview
     id="namedview1"
     pagecolor="#ffffff"
     bordercolor="#000000"
     borderopacity="0.25"
     inkscape:showpageshadow="2"
     inkscape:pageopacity="0.0"
     inkscape:pagecheckerboard="0"
     inkscape:deskcolor="#d1d1d1"
     inkscape:document-units="mm"
     inkscape:zoom="10.099009"
     inkscape:cx="20.695101"
     inkscape:cy="20.744611"
     inkscape:window-width="1366"
     inkscape:window-height="703"
     inkscape:window-x="0"
     inkscape:window-y="0"
     inkscape:window-maximized="1"
     inkscape:current-layer="layer1" /><defs
     id="defs1" /><g
     inkscape:groupmode="layer"
     id="layer2"
     inkscape:label="Capa 2"
     transform="matrix(0.93219653,0,0,0.93219653,-0.37027837,-0.6130551)"
     style="fill:#ececec"><ellipse
       style="fill:#ececec;stroke-width:0.257177;stroke-linecap:round;stroke-linejoin:round"
       id="path1-6"
       cx="6.8079262"
       cy="7.5941615"
       rx="5.7924161"
       ry="6.2918563" /></g><g
     inkscape:label="Capa 1"
     inkscape:groupmode="layer"
     id="layer1"
     transform="matrix(0.81724859,0,0,0.81724859,0.60497798,1.0949087)"><ellipse
       style="fill:#009bff;stroke-width:0.254368;stroke-linecap:round;stroke-linejoin:round;fill-opacity:1"
       id="path1"
       cx="6.5759339"
       cy="6.5759339"
       rx="5.7402563"
       ry="6.2110658" /><path
       id="path5"
       style="fill:#ffffff;stroke-width:0.166808;stroke-linecap:round;stroke-linejoin:round"
       d="M 6.59662,2.6812953 A 3.8366458,3.9962539 0 0 0 4.5012142,3.3301852 H 4.5008074 L 4.1580115,2.8241354 3.7871576,3.956322 3.7867508,3.9567433 3.415897,5.0885086 3.9982031,4.8689815 5.2299095,4.4050673 4.9106986,3.9339899 A 3.1393466,3.269946 0 0 1 6.610039,3.413614 3.1393466,3.269946 0 0 1 9.7496914,6.6837666 3.1393466,3.269946 0 0 1 6.610039,9.9534979 3.1393466,3.269946 0 0 1 3.4716066,6.7591896 C 3.2703069,6.4893581 3.017542,6.2215484 2.7847949,6.2261729 A 3.8366458,3.9962539 0 0 0 2.7599896,6.6774464 3.8366458,3.9962539 0 0 0 6.59662,10.673598 3.8366458,3.9962539 0 0 0 10.43325,6.6774464 3.8366458,3.9962539 0 0 0 6.59662,2.6812953 Z" /></g></svg>
