<?xml version="1.0" encoding="UTF-8" standalone="no"?>
<!-- Created with Inkscape (http://www.inkscape.org/) -->

<svg
   width="45.173267"
   height="48.87833"
   viewBox="0 0 11.952093 12.932392"
   version="1.1"
   id="svg1"
   inkscape:version="1.4.3 (1:1.4.3+202512261035+0d15f75042)"
   sodipodi:docname="refresh2.svg"
   xml:space="preserve"
   xmlns:inkscape="http://www.inkscape.org/namespaces/inkscape"
   xmlns:sodipodi="http://sodipodi.sourceforge.net/DTD/sodipodi-0.dtd"
   xmlns:xlink="http://www.w3.org/1999/xlink"
   xmlns="http://www.w3.org/2000/svg"
   xmlns:svg="http://www.w3.org/2000/svg"><sodipodi:namedview
     id="namedview1"
     pagecolor="#ffffff"
     bordercolor="#000000"
     borderopacity="0.25"
     inkscape:showpageshadow="2"
     inkscape:pageopacity="0.0"
     inkscape:pagecheckerboard="0"
     inkscape:deskcolor="#d1d1d1"
     inkscape:document-units="mm"
     inkscape:zoom="10.099009"
     inkscape:cx="24.358827"
     inkscape:cy="17.080885"
     inkscape:window-width="1366"
     inkscape:window-height="703"
     inkscape:window-x="0"
     inkscape:window-y="0"
     inkscape:window-maximized="1"
     inkscape:current-layer="layer1" /><defs
     id="defs1"><linearGradient
       id="swatch14"
       inkscape:swatch="solid"><stop
         style="stop-color:#000000;stop-opacity:1;"
         offset="0"
         id="stop14" /></linearGradient><linearGradient
       id="swatch13"
       inkscape:swatch="solid"><stop
         style="stop-color:#ffffff;stop-opacity:1;"
         offset="0"
         id="stop13" /></linearGradient><linearGradient
       inkscape:collect="always"
       xlink:href="#swatch13"
       id="linearGradient14"
       x1="-0.74153739"
       y1="6.6470828"
       x2="13.920257"
       y2="6.6470828"
       gradientUnits="userSpaceOnUse"
       gradientTransform="matrix(0.90138748,0,0,0.91791907,0.64979335,0.54559875)" /></defs><g
     inkscape:groupmode="layer"
     id="layer2"
     inkscape:label="Capa 2"
     transform="matrix(0.93219653,0,0,0.93219653,-0.37027837,-0.6130551)"
     style="fill:#ececec" /><g
     inkscape:label="Capa 1"
     inkscape:groupmode="layer"
     id="layer1"
     transform="matrix(0.81724859,0,0,0.81724859,0.60497798,1.0949087)"><path
       id="path5-7"
       style="fill:#0091ff;stroke:url(#linearGradient14);stroke-width:0.289923;stroke-linecap:round;stroke-linejoin:round;fill-opacity:1"
       d="m 6.5893678,-0.36187588 a 6.6080056,7.0091384 0 0 0 -3.609,1.13810564 h -7.01e-4 L 2.3892559,-0.11134475 1.7505194,1.8744281 1.7498184,1.8751671 1.1110838,3.860201 2.1140122,3.4751665 4.2354278,2.6614947 3.6856382,1.8352593 A 5.4070198,5.7352472 0 0 1 6.6124798,0.9225578 5.4070198,5.7352472 0 0 1 12.020026,6.6581674 5.4070198,5.7352472 0 0 1 6.6124798,12.393038 5.4070198,5.7352472 0 0 1 1.2070336,6.7904539 C 0.86032842,6.317189 0.42498134,5.8474703 0.02411205,5.8555814 A 6.6080056,7.0091384 0 0 0 -0.01861918,6.6470822 6.6080056,7.0091384 0 0 0 6.5893609,13.656041 6.6080056,7.0091384 0 0 0 13.197339,6.6470822 6.6080056,7.0091384 0 0 0 6.5893609,-0.36187588 Z" /></g></svg>
